<svg xmlns="http://www.w3.org/2000/svg" data-name="Layer 1" viewBox="0 0 100 125" x="0px" y="0px"><path d="M93.749,14.931H6.251A1.25,1.25,0,0,0,5,16.181V83.819a1.25,1.25,0,0,0,1.25,1.25h87.5A1.25,1.25,0,0,0,95,83.819V16.181A1.25,1.25,0,0,0,93.749,14.931ZM92.5,26.748h-64V17.431h64ZM26,17.431v9.317H7.5V17.431ZM7.5,82.569V29.248h85V82.569ZM83.021,34.51a3.471,3.471,0,0,0-3.4,4.16l-6.872,4.381a3.452,3.452,0,0,0-4.6.442L61.833,41v-.028a3.472,3.472,0,1,0-6.724,1.206l-7.48,6.61a3.489,3.489,0,1,0,1.655,1.874l7.48-6.61a3.451,3.451,0,0,0,4.145-.728l6.311,2.5,0,.028a3.473,3.473,0,1,0,6.876-.688l6.871-4.381a3.47,3.47,0,1,0,2.055-6.265ZM46.033,52.837a.972.972,0,1,1,.972-.972A.973.973,0,0,1,46.033,52.837Zm12.329-10.9a.973.973,0,1,1,.972-.973A.974.974,0,0,1,58.362,41.942Zm12.33,4.874a.972.972,0,1,1,.972-.972A.974.974,0,0,1,70.692,46.816Zm12.329-7.861a.973.973,0,1,1,.972-.973A.974.974,0,0,1,83.021,38.955Zm.608-13.475a3.39,3.39,0,1,0-3.39-3.39A3.394,3.394,0,0,0,83.629,25.48Zm0-4.28a.89.89,0,1,1-.89.89A.891.891,0,0,1,83.629,21.2ZM71.843,25.48a3.39,3.39,0,1,0-3.39-3.39A3.394,3.394,0,0,0,71.843,25.48Zm0-4.28a.89.89,0,1,1-.89.89A.891.891,0,0,1,71.843,21.2ZM60.058,25.48a3.39,3.39,0,1,0-3.39-3.39A3.394,3.394,0,0,0,60.058,25.48Zm0-4.28a.89.89,0,1,1-.89.89A.891.891,0,0,1,60.058,21.2ZM24.478,32.53A13.839,13.839,0,1,0,35.485,54.744a1.188,1.188,0,0,0,.18-.242A13.829,13.829,0,0,0,24.478,32.53ZM13.138,46.369A11.355,11.355,0,0,1,23.228,35.1V57.638A11.355,11.355,0,0,1,13.138,46.369Zm12.59,11.269V48.856l7.042,5.236A11.32,11.32,0,0,1,25.728,57.638Zm8.535-5.551-8.535-6.346V35.1a11.328,11.328,0,0,1,8.535,16.987Zm4.054,14.5a1.25,1.25,0,0,1-1.25,1.25H11.889a1.25,1.25,0,1,1,0-2.5H37.067A1.25,1.25,0,0,1,38.317,66.592Zm0,6.679a1.25,1.25,0,0,1-1.25,1.25H11.889a1.25,1.25,0,1,1,0-2.5H37.067A1.25,1.25,0,0,1,38.317,73.271Zm46.926-8.725H43.811a1.25,1.25,0,0,0-1.25,1.25V77.131a1.25,1.25,0,0,0,1.25,1.25H85.243a1.25,1.25,0,0,0,1.25-1.25V65.8A1.25,1.25,0,0,0,85.243,64.546Zm-1.25,11.335H45.061V67.046H83.993Zm2.5-15.848a1.25,1.25,0,0,1-1.25,1.25H43.811a1.25,1.25,0,1,1,0-2.5H85.243A1.25,1.25,0,0,1,86.493,60.033Z"/><text x="0" y="115" fill="#000000" font-size="5px" font-weight="bold" font-family="'Helvetica Neue', Helvetica, Arial-Unicode, Arial, Sans-serif">Created by ramacae</text><text x="0" y="120" fill="#000000" font-size="5px" font-weight="bold" font-family="'Helvetica Neue', Helvetica, Arial-Unicode, Arial, Sans-serif">from the Noun Project</text></svg>